{
  "accessors": [
    {
      "bufferView": 2,
      "componentType": 5126,
      "count": 4996,
      "max": [
        12.864399909973145,
        7.002880096435547,
        4.599999904632568
      ],
      "min": [
        -10.549099922180176,
        -0.19909599423408508,
        0.800000011920929
      ],
      "type": "VEC3"
    },
    {
      "bufferView": 2,
      "byteOffset": 59952,
      "componentType": 5126,
      "count": 4996,
      "max": [
        1.0,
        1.0,
        1.0
      ],
      "min": [
        -1.0,
        -1.0,
        -1.0
      ],
      "type": "VEC3"
    },
    {
      "bufferView": 1,
      "componentType": 5126,
      "count": 4996,
      "max": [
        921.3679809570313,
        921.8759765625
      ],
      "min": [
        -913.385986328125,
        -722.6279907226563
      ],
      "type": "VEC2"
    },
    {
      "bufferView": 0,
      "componentType": 5125,
      "count": 9948,
      "type": "SCALAR"
    },
    {
      "bufferView": 2,
      "byteOffset": 119904,
      "componentType": 5126,
      "count": 4994,
      "max": [
        12.864399909973145,
        0.2009029984474182,
        4.599999904632568
      ],
      "min": [
        -10.549099922180176,
        -7.001070022583008,
        0.800000011920929
      ],
      "type": "VEC3"
    },
    {
      "bufferView": 2,
      "byteOffset": 179832,
      "componentType": 5126,
      "count": 4994,
      "max": [
        1.0,
        1.0,
        1.0
      ],
      "min": [
        -1.0,
        -1.0,
        -1.0
      ],
      "type": "VEC3"
    },
    {
      "bufferView": 1,
      "byteOffset": 39968,
      "componentType": 5126,
      "count": 4994,
      "max": [
        921.3679809570313,
        921.8759765625
      ],
      "min": [
        -913.385986328125,
        -722.6279907226563
      ],
      "type": "VEC2"
    },
    {
      "bufferView": 0,
      "byteOffset": 39792,
      "componentType": 5125,
      "count": 9948,
      "type": "SCALAR"
    },
    {
      "bufferView": 2,
      "byteOffset": 239760,
      "componentType": 5126,
      "count": 8659,
      "max": [
        17.59440040588379,
        8.100899696350098,
        25.350000381469727
      ],
      "min": [
        -12.455599784851074,
        -8.099100112915039,
        7.437349823618713e-29
      ],
      "type": "VEC3"
    },
    {
      "bufferView": 2,
      "byteOffset": 343668,
      "componentType": 5126,
      "count": 8659,
      "max": [
        1.0,
        1.0,
        1.0
      ],
      "min": [
        -1.0,
        -1.0,
        -1.0
      ],
      "type": "VEC3"
    },
    {
      "bufferView": 1,
      "byteOffset": 79920,
      "componentType": 5126,
      "count": 8659,
      "max": [
        1196.3199462890625,
        393.70098876953125
      ],
      "min": [
        -1196.3199462890625,
        -3.9370100498199463
      ],
      "type": "VEC2"
    },
    {
      "bufferView": 0,
      "byteOffset": 79584,
      "componentType": 5125,
      "count": 16749,
      "type": "SCALAR"
    },
    {
      "bufferView": 2,
      "byteOffset": 447576,
      "componentType": 5126,
      "count": 9242,
      "max": [
        20.522499084472656,
        10.102899551391602,
        26.25
      ],
      "min": [
        -17.335599899291992,
        -10.101099967956543,
        -4.513989788829942e-28
      ],
      "type": "VEC3"
    },
    {
      "bufferView": 2,
      "byteOffset": 558480,
      "componentType": 5126,
      "count": 9242,
      "max": [
        1.0,
        1.0,
        1.0
      ],
      "min": [
        -1.0,
        -1.0,
        -1.0
      ],
      "type": "VEC3"
    },
    {
      "bufferView": 1,
      "byteOffset": 149192,
      "componentType": 5126,
      "count": 9242,
      "max": [
        1490.47998046875,
        1033.4599609375
      ],
      "min": [
        -1008.97998046875,
        -482.9930114746094
      ],
      "type": "VEC2"
    },
    {
      "bufferView": 0,
      "byteOffset": 146580,
      "componentType": 5125,
      "count": 16791,
      "type": "SCALAR"
    }
  ],
  "asset": {
    "extras": {
      "author": "Darkkostas25 (https://sketchfab.com/Darkkostas25)",
      "license": "CC-BY-4.0 (http://creativecommons.org/licenses/by/4.0/)",
      "source": "https://sketchfab.com/3d-models/building-4e37f4b1d63b4f7e8e2d6bb5c71512d4",
      "title": "Building"
    },
    "generator": "Sketchfab-12.68.0",
    "version": "2.0"
  },
  "bufferViews": [
    {
      "buffer": 0,
      "byteLength": 213744,
      "name": "floatBufferViews",
      "target": 34963
    },
    {
      "buffer": 0,
      "byteLength": 223128,
      "byteOffset": 213744,
      "byteStride": 8,
      "name": "floatBufferViews",
      "target": 34962
    },
    {
      "buffer": 0,
      "byteLength": 669384,
      "byteOffset": 436872,
      "byteStride": 12,
      "name": "floatBufferViews",
      "target": 34962
    }
  ],
  "buffers": [
    {
      "byteLength": 1106256,
      "uri": "scene.bin"
    }
  ],
  "materials": [
    {
      "doubleSided": true,
      "name": "FrontColor",
      "pbrMetallicRoughness": {
        "metallicFactor": 0.0,
        "roughnessFactor": 0.6
      }
    }
  ],
  "meshes": [
    {
      "name": "Object_0",
      "primitives": [
        {
          "attributes": {
            "NORMAL": 1,
            "POSITION": 0,
            "TEXCOORD_0": 2
          },
          "indices": 3,
          "material": 0,
          "mode": 4
        }
      ]
    },
    {
      "name": "Object_1",
      "primitives": [
        {
          "attributes": {
            "NORMAL": 5,
            "POSITION": 4,
            "TEXCOORD_0": 6
          },
          "indices": 7,
          "material": 0,
          "mode": 4
        }
      ]
    },
    {
      "name": "Object_2",
      "primitives": [
        {
          "attributes": {
            "NORMAL": 9,
            "POSITION": 8,
            "TEXCOORD_0": 10
          },
          "indices": 11,
          "material": 0,
          "mode": 4
        }
      ]
    },
    {
      "name": "Object_3",
      "primitives": [
        {
          "attributes": {
            "NORMAL": 13,
            "POSITION": 12,
            "TEXCOORD_0": 14
          },
          "indices": 15,
          "material": 0,
          "mode": 4
        }
      ]
    }
  ],
  "nodes": [
    {
      "children": [
        1
      ],
      "matrix": [
        1.0,
        0.0,
        0.0,
        0.0,
        0.0,
        2.220446049250313e-16,
        -1.0,
        0.0,
        0.0,
        1.0,
        2.220446049250313e-16,
        0.0,
        0.0,
        0.0,
        0.0,
        1.0
      ],
      "name": "Sketchfab_model"
    },
    {
      "children": [
        2,
        3,
        4,
        5
      ],
      "name": "Untitled.obj.cleaner.materialmerger.gles"
    },
    {
      "mesh": 0,
      "name": "Object_2"
    },
    {
      "mesh": 1,
      "name": "Object_3"
    },
    {
      "mesh": 2,
      "name": "Object_4"
    },
    {
      "mesh": 3,
      "name": "Object_5"
    }
  ],
  "scene": 0,
  "scenes": [
    {
      "name": "Sketchfab_Scene",
      "nodes": [
        0
      ]
    }
  ]
}
